<?xml version="1.0" standalone="no"?>
<!DOCTYPE svg PUBLIC "-//W3C//DTD SVG 20010904//EN"
 "http://www.w3.org/TR/2001/REC-SVG-20010904/DTD/svg10.dtd">
<svg version="1.0" xmlns="http://www.w3.org/2000/svg"
 width="60.000000pt" height="60.000000pt" viewBox="0 0 60.000000 60.000000"
 preserveAspectRatio="xMidYMid meet">

<g transform="translate(0.000000,60.000000) scale(0.100000,-0.100000)"
fill="#000000" stroke="none">
<path d="M45 449 c-16 -25 21 -29 261 -27 213 3 249 5 249 18 0 13 -36 15
-252 18 -175 2 -254 -1 -258 -9z"/>
<path d="M45 309 c-16 -25 21 -29 261 -27 213 3 249 5 249 18 0 13 -36 15
-252 18 -175 2 -254 -1 -258 -9z"/>
<path d="M45 169 c-16 -25 21 -29 261 -27 213 3 249 5 249 18 0 13 -36 15
-252 18 -175 2 -254 -1 -258 -9z"/>
</g>
</svg>
